<?xml version="1.0" encoding="UTF-8" standalone="no"?><!DOCTYPE svg PUBLIC "-//W3C//DTD SVG 1.1//EN" "http://www.w3.org/Graphics/SVG/1.1/DTD/svg11.dtd"><svg width="100%" height="100%" viewBox="0 0 3195 3195" version="1.1" xmlns="http://www.w3.org/2000/svg" xmlns:xlink="http://www.w3.org/1999/xlink" xml:space="preserve" xmlns:serif="http://www.serif.com/" style="fill-rule:evenodd;clip-rule:evenodd;stroke-linejoin:round;stroke-miterlimit:2;"><g id="cg-logo"><g id="background"><path id="background1" serif:id="background" d="M3194.74,1597.37c-0,-881.612 -715.757,-1597.37 -1597.37,-1597.37c-881.612,0 -1597.37,715.757 -1597.37,1597.37c0,881.613 715.757,1597.37 1597.37,1597.37c881.613,-0 1597.37,-715.757 1597.37,-1597.37Z" style="fill:#363636;"/><path id="sun" d="M1420.81,115.707c-713.914,97.175 -1314.31,695.534 -1314.31,1436.02c0,165.456 7.834,324.772 59.618,483.667c13.627,41.838 25.056,119.855 62.866,146.909c42.005,30.061 143.186,10.809 192.952,10.809l1850.55,0c210.657,0 453.995,34.246 661.31,-1.554c72.444,-12.512 97.774,-179.829 112.82,-240.277c66.473,-267.111 52.215,-559.466 -34.614,-820.132c-218.597,-656.294 -894.742,-1110.24 -1591.19,-1015.44m-1177.62,2108.95c12.88,44.729 34.897,110.833 77.06,136.394c37.316,22.627 101.812,10.809 143.744,10.809l1955.7,-0c187.232,-0 462.239,73.192 525.726,-147.203l-2702.23,-0m115.659,210.29c98.889,173.573 328.358,115.66 504.696,115.66l1429.97,-0c181.144,-0 434.796,62.372 536.24,-115.66l-2470.91,0m178.747,210.29c92.538,130.905 297.77,84.116 441.609,84.116l1209.17,-0c147.214,-0 368.092,49.639 462.638,-84.116l-2113.41,0m262.862,210.29l0,10.514c110.424,66.589 253.411,42.059 378.523,42.059l820.131,-0c125.102,-0 280.579,28.505 389.037,-42.059c-122.957,-51.594 -339.314,-10.514 -473.153,-10.514l-1114.54,0m515.208,199.773l0,10.515c184.12,34.309 373.15,34.309 557.269,0l-178.746,-10.515l-378.523,0" style="fill:url(#_Linear1);fill-rule:nonzero;"/><path id="sun1" serif:id="sun" d="M1420.81,115.707c-713.914,97.175 -1314.31,695.534 -1314.31,1436.02c0,165.456 7.834,324.772 59.618,483.667c13.627,41.838 25.056,119.855 62.866,146.909c42.005,30.061 143.186,10.809 192.952,10.809l1850.55,0c210.657,0 453.995,34.246 661.31,-1.554c72.444,-12.512 97.774,-179.829 112.82,-240.277c66.473,-267.111 52.215,-559.466 -34.614,-820.132c-218.597,-656.294 -894.742,-1110.24 -1591.19,-1015.44m-1177.62,2108.95c12.88,44.729 34.897,110.833 77.06,136.394c37.316,22.627 101.812,10.809 143.744,10.809l1955.7,-0c187.232,-0 462.239,73.192 525.726,-147.203l-2702.23,-0m115.659,210.29c98.889,173.573 328.358,115.66 504.696,115.66l1429.97,-0c181.144,-0 434.796,62.372 536.24,-115.66l-2470.91,0m178.747,210.29c92.538,130.905 297.77,84.116 441.609,84.116l1209.17,-0c147.214,-0 368.092,49.639 462.638,-84.116l-2113.41,0m262.862,210.29l0,10.514c110.424,66.589 253.411,42.059 378.523,42.059l820.131,-0c125.102,-0 280.579,28.505 389.037,-42.059c-122.957,-51.594 -339.314,-10.514 -473.153,-10.514l-1114.54,0m515.208,199.773l0,10.515c184.12,34.309 373.15,34.309 557.269,0l-178.746,-10.515l-378.523,0" style="fill:url(#_Linear2);fill-rule:nonzero;"/></g><path id="crystal-blue" d="M1297.5,404.614l0,5.805l406.575,190.345l621.47,291.603l-168.433,-220.651l-259.046,-330.975l-104.544,-133.553l-49.017,-47.451l-121.745,59.935l-325.26,184.942Zm-11.619,23.225l23.232,917.443l296.216,-120.259l737.646,-303.619l-226.523,-109.522l-400.761,-188.122l-290.408,-137.045l-139.402,-58.876Zm133.588,2572.32l213.108,-476.14l448.216,-998.733l159.433,-354.204l102.749,-238.069l-296.222,119.471l-482.077,198.326l-185.863,77.111l-66.195,37.069l1.792,125.451l6.095,261.304l17.654,888.406l5.808,238.072l5.971,96.216l69.531,25.72Zm-493.693,-1985.86c64.147,496.59 195.279,986.989 279.265,1480.69c20.456,120.234 44.148,240.417 68.064,360.009c8.904,44.515 5.949,102.695 53.438,121.937l-28.816,-1172.93l-6.035,-307.752l-5.971,-139.332l-98.577,-98.734l-261.368,-243.883Zm-23.232,11.613c-51.084,156.945 -102.672,313.726 -154.887,470.336c-20.159,60.467 -67.032,145.051 -64.205,209.038c3.441,77.936 70.46,178.241 101.296,249.685c76.772,177.883 152.593,356.181 229.024,534.208c47.352,110.295 94.766,220.578 141.888,330.978c27.663,64.825 41.33,120.247 118.608,133.553l-84.865,-441.305l-177.647,-934.864l-72.038,-383.234l-37.174,-168.395Zm1405.58,29.037l-877.03,1951.02l255.56,29.031l100.305,-20.833l39.088,-124.33l89.271,-336.786l283.328,-1074.22l81.313,-296.133l28.165,-127.745Zm-493.693,1956.82c46.637,-7.472 57.793,-48.847 76.958,-87.095l116.167,-232.264c117.266,-234.509 236.97,-468.013 354.293,-702.599c49.254,-98.568 107.165,-194.279 149.565,-296.14l-284.6,104.519l-99.612,44.417l-28.171,89.136l-63.192,238.069l-151.015,569.05l-70.393,272.907Zm633.092,-1161.32l-413.831,824.54l-155.376,319.366c42.985,-6.345 133.649,-26.156 162.226,-60.966c49.777,-60.812 71.904,-178.835 99.439,-252.595c67.313,-180.442 137.479,-359.827 205.432,-540.01c24.861,-65.885 49.429,-131.971 75.389,-197.425c10.635,-26.804 32.641,-64.182 26.721,-92.91Zm-1713.41,40.654c55.693,240.672 143.05,477.051 212.44,714.209c40.768,139.339 71.163,262.301 228.983,307.746c-79.945,-234.778 -196.278,-463.199 -294.587,-690.984c-43.723,-101.305 -77.661,-245.378 -146.836,-330.971Z" style="fill:#119da4;fill-rule:nonzero;"/><path d="M896.457,984.694c2.976,-2.947 6.428,-5.476 10.291,-7.459c15.628,-8.022 34.609,-5.38 47.453,6.605l261.368,243.883c0.36,0.335 0.713,0.677 1.06,1.025l49.097,49.175l-21.5,-849.029c-0.29,-11.458 4.146,-22.4 12.055,-30.381c1.858,-12.565 9.388,-23.732 20.623,-30.12l325.26,-184.941c0.718,-0.409 1.449,-0.796 2.191,-1.162l121.745,-59.935c15.783,-7.77 34.745,-4.791 47.385,7.445l49.016,47.451c1.373,1.329 2.652,2.75 3.829,4.254l104.546,133.554l259.046,330.976c0.104,0.133 0.207,0.266 0.309,0.399l168.433,220.651c4.618,6.05 7.36,13.04 8.237,20.206c11.359,7.964 18.145,21.2 17.721,35.361c-0.046,1.538 -0.176,3.061 -0.387,4.562c1.044,7.417 0.094,15.134 -3.005,22.314l-36.733,85.109c4.82,8.63 6.587,18.971 4.312,29.288l-28.165,127.745c-0.152,0.691 -0.322,1.379 -0.51,2.061l-81.257,295.931l-76.978,291.858l47.943,-21.378c0.856,-0.382 1.724,-0.734 2.604,-1.057l284.6,-104.519c15.543,-5.708 32.99,-1.672 44.446,10.282c11.457,11.954 14.748,29.556 8.385,44.842c-18.44,44.302 -39.771,87.459 -62.054,130.193c0.186,0.712 0.355,1.433 0.505,2.161c3.678,17.848 1.487,37.945 -4.809,58.181c-6.4,20.573 -17.273,41.574 -23.991,58.504c-25.874,65.236 -50.357,131.103 -75.133,196.762c-67.935,180.137 -138.083,359.475 -205.379,539.87l-0.003,0.009c-28.905,77.427 -53.981,200.581 -106.233,264.415l-0.038,0.046c-11.881,14.473 -30.931,27.894 -54.193,38.682c-42.841,19.869 -101.238,32.207 -134.153,37.066c-5.718,0.844 -11.436,0.478 -16.832,-0.963c-12.643,8.911 -27.799,15.299 -46.545,18.302c-5.718,0.916 -11.468,0.619 -16.914,-0.774c-2.748,1.241 -5.653,2.193 -8.676,2.821l-100.306,20.833c-4.332,0.9 -8.78,1.104 -13.176,0.604l-255.56,-29.03c-7.13,-0.81 -13.821,-3.431 -19.504,-7.487c-0.626,-0.199 -1.25,-0.413 -1.871,-0.643l-63.406,-23.455c-9.781,3.792 -20.766,3.797 -30.711,-0.232c-12.877,-5.218 -23.545,-12.123 -32.403,-20.388c-3.722,0.38 -7.52,0.261 -11.295,-0.39c-38.188,-6.575 -64.487,-20.807 -84.505,-40.669c-6.12,1.069 -12.506,0.776 -18.695,-1.006c-174.181,-50.157 -212.448,-182.302 -257.443,-336.085c-69.612,-237.917 -157.172,-475.074 -213.044,-716.517c-2.276,-9.834 -0.864,-19.808 3.47,-28.313c-8.208,-16.244 -16.242,-32.762 -23.44,-49.213c-17.567,-40.15 -30.139,-80.138 -31.715,-115.845c-1.334,-30.184 6.06,-64.373 17.714,-98.955c14.809,-43.941 36.506,-88.856 48.589,-125.1c52.183,-156.515 103.741,-313.203 154.794,-470.053c4.965,-15.252 18.118,-26.056 33.535,-28.327Zm523.011,2015.47l213.108,-476.14l448.216,-998.733l159.433,-354.204l102.749,-238.069l-296.222,119.471l-482.077,198.326l-185.863,77.111l-66.195,37.069l1.792,125.451l6.095,261.304l17.654,888.406l5.808,238.072l5.971,96.216l69.531,25.72Zm888.652,-1945.21l-877.03,1951.02l255.56,29.031l100.305,-20.833l39.088,-124.33l89.271,-336.786l283.328,-1074.22l81.313,-296.133l28.165,-127.745Zm-1574.02,836.153c55.693,240.672 143.05,477.051 212.44,714.209c40.768,139.339 71.163,262.301 228.983,307.746c-79.945,-234.778 -196.278,-463.199 -294.587,-690.984c-43.723,-101.305 -77.661,-245.378 -146.836,-330.971Zm168.439,-865.19c-51.084,156.945 -102.672,313.726 -154.887,470.336c-20.159,60.467 -67.032,145.051 -64.205,209.038c3.441,77.936 70.46,178.241 101.296,249.685c76.772,177.883 152.593,356.181 229.024,534.208c47.352,110.295 94.766,220.578 141.888,330.978c27.663,64.825 41.33,120.247 118.608,133.553l-84.865,-441.305l-177.647,-934.864l-72.038,-383.234l-37.174,-168.395Zm911.884,1985.86c46.637,-7.472 57.793,-48.847 76.958,-87.095l116.167,-232.264c117.266,-234.509 236.97,-468.013 354.293,-702.599c49.254,-98.568 107.165,-194.279 149.565,-296.14l-284.6,104.519l-99.612,44.417l-28.171,89.136l-63.192,238.069l-151.015,569.05l-70.393,272.907Zm633.092,-1161.32l-413.831,824.54l-155.376,319.366c42.985,-6.345 133.649,-26.156 162.226,-60.966c49.777,-60.812 71.904,-178.835 99.439,-252.595c67.313,-180.442 137.479,-359.827 205.432,-540.01c24.861,-65.885 49.429,-131.971 75.389,-197.425c10.635,-26.804 32.641,-64.182 26.721,-92.91Zm-1521.74,-836.149c64.147,496.59 195.279,986.989 279.265,1480.69c20.456,120.234 44.148,240.417 68.064,360.009c8.904,44.515 5.949,102.695 53.438,121.937l-28.816,-1172.93l-6.035,-307.752l-5.971,-139.332l-98.577,-98.734l-261.368,-243.883Zm371.724,-609.69l0,5.805l406.575,190.345l621.47,291.603l-168.433,-220.651l-259.046,-330.975l-104.544,-133.553l-49.017,-47.451l-121.745,59.935l-325.26,184.942Zm-11.619,23.225l23.232,917.443l296.216,-120.259l737.646,-303.619l-226.523,-109.522l-400.761,-188.122l-290.408,-137.045l-139.402,-58.876Z" style="fill:#363636;"/></g><defs><linearGradient id="_Linear1" x1="0" y1="0" x2="1" y2="0" gradientUnits="userSpaceOnUse" gradientTransform="matrix(2981.76,0,0,2988.35,106.491,1597.37)"><stop offset="0" style="stop-color:#f2f2f2;stop-opacity:1"/><stop offset="1" style="stop-color:#f2f2f2;stop-opacity:1"/></linearGradient><linearGradient id="_Linear2" x1="0" y1="0" x2="1" y2="0" gradientUnits="userSpaceOnUse" gradientTransform="matrix(1.8957e-13,3095.91,-3102.75,1.89989e-13,1599.51,-263.557)"><stop offset="0" style="stop-color:#f2f2f2;stop-opacity:0"/><stop offset="0.69" style="stop-color:#f2f2f2;stop-opacity:0"/><stop offset="1" style="stop-color:#bf4e30;stop-opacity:1"/></linearGradient></defs></svg>