<?xml version="1.0" encoding="UTF-8" standalone="no"?><!DOCTYPE svg PUBLIC "-//W3C//DTD SVG 1.1//EN" "http://www.w3.org/Graphics/SVG/1.1/DTD/svg11.dtd"><svg width="100%" height="100%" viewBox="0 0 4167 4167" version="1.1" xmlns="http://www.w3.org/2000/svg" xmlns:xlink="http://www.w3.org/1999/xlink" xml:space="preserve" xmlns:serif="http://www.serif.com/" style="fill-rule:evenodd;clip-rule:evenodd;stroke-linejoin:round;stroke-miterlimit:2;"><g id="cg-logo-full"><g id="crossinguard-logo" serif:id="crossinguard logo"><g id="background"><path id="background1" serif:id="background" d="M3478.06,1603.06c-0,-769.772 -624.958,-1394.73 -1394.73,-1394.73c-769.772,0 -1394.73,624.958 -1394.73,1394.73c0,769.772 624.957,1394.73 1394.73,1394.73c769.772,-0 1394.73,-624.957 1394.73,-1394.73Z" style="fill:#22272e;"/><path id="sun" d="M1929.17,309.362c-623.347,84.847 -1147.58,607.3 -1147.58,1253.85c-0,144.466 6.84,283.572 52.054,422.31c11.899,36.53 21.878,104.65 54.892,128.272c36.676,26.247 125.022,9.438 168.474,9.438l1615.79,-0c183.934,-0 396.402,29.901 577.417,-1.357c63.254,-10.925 85.371,-157.017 98.508,-209.797c58.04,-233.225 45.591,-488.493 -30.223,-716.09c-190.865,-573.038 -781.236,-969.394 -1389.34,-886.621m-1028.23,1841.41c11.246,39.055 30.47,96.774 67.285,119.092c32.582,19.756 88.896,9.437 125.508,9.437l1707.6,0c163.48,0 403.6,63.907 459.033,-128.529l-2359.43,0m100.987,183.613c86.344,151.554 286.703,100.988 440.671,100.988l1248.57,-0c158.165,-0 379.639,54.459 468.213,-100.988l-2157.45,0m156.071,183.613c80.799,114.299 259.996,73.445 385.587,73.445l1055.78,0c128.538,0 321.396,43.342 403.949,-73.445l-1845.31,0m229.516,183.613l0,9.181c96.416,58.141 221.263,36.723 330.504,36.723l716.09,-0c109.232,-0 244.986,24.888 339.684,-36.723c-107.358,-45.049 -296.269,-9.181 -413.129,-9.181l-973.149,0m449.85,174.431l-0,9.18c160.762,29.957 325.812,29.957 486.574,0l-156.071,-9.18l-330.503,-0" style="fill:url(#_Linear1);fill-rule:nonzero;"/><path id="sun1" serif:id="sun" d="M1929.17,309.362c-623.347,84.847 -1147.58,607.3 -1147.58,1253.85c-0,144.466 6.84,283.572 52.054,422.31c11.899,36.53 21.878,104.65 54.892,128.272c36.676,26.247 125.022,9.438 168.474,9.438l1615.79,-0c183.934,-0 396.402,29.901 577.417,-1.357c63.254,-10.925 85.371,-157.017 98.508,-209.797c58.04,-233.225 45.591,-488.493 -30.223,-716.09c-190.865,-573.038 -781.236,-969.394 -1389.34,-886.621m-1028.23,1841.41c11.246,39.055 30.47,96.774 67.285,119.092c32.582,19.756 88.896,9.437 125.508,9.437l1707.6,0c163.48,0 403.6,63.907 459.033,-128.529l-2359.43,0m100.987,183.613c86.344,151.554 286.703,100.988 440.671,100.988l1248.57,-0c158.165,-0 379.639,54.459 468.213,-100.988l-2157.45,0m156.071,183.613c80.799,114.299 259.996,73.445 385.587,73.445l1055.78,0c128.538,0 321.396,43.342 403.949,-73.445l-1845.31,0m229.516,183.613l0,9.181c96.416,58.141 221.263,36.723 330.504,36.723l716.09,-0c109.232,-0 244.986,24.888 339.684,-36.723c-107.358,-45.049 -296.269,-9.181 -413.129,-9.181l-973.149,0m449.85,174.431l-0,9.18c160.762,29.957 325.812,29.957 486.574,0l-156.071,-9.18l-330.503,-0" style="fill:url(#_Linear2);fill-rule:nonzero;stroke:#363636;stroke-width:4.17px;"/></g><path id="crystal-blue" d="M1821.5,561.618l0,5.069l354.998,166.198l542.63,254.611l-147.066,-192.659l-226.183,-288.988l-91.282,-116.611l-42.799,-41.432l-106.3,52.332l-283.998,161.48Zm-10.145,20.28l20.285,801.057l258.638,-105.004l644.07,-265.102l-197.787,-95.628l-349.921,-164.257l-253.567,-119.659l-121.718,-51.407Zm116.641,2246l186.074,-415.738l391.355,-872.035l139.208,-309.27l89.715,-207.868l-258.645,104.315l-420.921,173.167l-162.285,67.329l-57.797,32.366l1.565,109.536l5.322,228.156l15.414,775.703l5.072,207.871l5.213,84.01l60.71,22.458Zm-431.063,-1733.94c56.009,433.594 170.505,861.781 243.837,1292.85c17.861,104.981 38.548,209.918 59.43,314.339c7.774,38.868 5.194,89.667 46.659,106.468l-25.161,-1024.14l-5.269,-268.712l-5.214,-121.656l-86.071,-86.208l-228.211,-212.945Zm-20.285,10.14c-44.604,137.035 -89.648,273.927 -135.239,410.669c-17.601,52.797 -58.528,126.65 -56.06,182.52c3.005,68.049 61.522,155.63 88.446,218.01c67.033,155.318 133.235,310.997 199.97,466.44c41.346,96.303 82.744,192.595 123.889,288.991c24.154,56.6 36.087,104.992 103.561,116.61l-74.099,-385.322l-155.111,-816.268l-62.899,-334.618l-32.458,-147.032Zm1227.27,25.353l-765.771,1703.51l223.14,25.348l87.581,-18.19l34.129,-108.557l77.946,-294.062l247.385,-937.947l70.998,-258.566l24.592,-111.54Zm-431.064,1708.58c40.721,-6.525 50.461,-42.651 67.195,-76.047l101.431,-202.799c102.39,-204.76 206.908,-408.642 309.348,-613.469c43.005,-86.063 93.57,-169.632 130.591,-258.571l-248.496,91.26l-86.975,38.781l-24.598,77.829l-55.175,207.868l-131.858,496.861l-61.463,238.287Zm552.779,-1014l-361.333,719.94l-135.665,278.851c37.532,-5.54 116.694,-22.838 141.646,-53.232c43.462,-53.097 62.782,-156.148 86.825,-220.551c58.773,-157.551 120.038,-314.18 179.37,-471.505c21.708,-57.527 43.159,-115.23 65.826,-172.38c9.286,-23.404 28.5,-56.04 23.331,-81.123Zm-1496.05,35.496c48.629,210.141 124.904,416.533 185.491,623.605c35.596,121.663 62.135,229.026 199.934,268.706c-69.803,-204.994 -171.378,-404.438 -257.216,-603.326c-38.176,-88.454 -67.809,-214.25 -128.209,-288.985Z" style="fill:#119da4;fill-rule:nonzero;"/><path d="M1468.87,1063.17c2.679,-2.442 5.708,-4.56 9.041,-6.271c15.629,-8.022 34.61,-5.381 47.454,6.604l228.211,212.944c0.359,0.336 0.713,0.677 1.06,1.025l33.508,33.562l-18.437,-728.079c-0.275,-10.871 3.705,-21.278 10.868,-29.133c2.26,-11.868 9.61,-22.323 20.336,-28.422l283.998,-161.479c0.718,-0.409 1.449,-0.796 2.191,-1.162l106.301,-52.332c15.783,-7.77 34.745,-4.79 47.384,7.445l42.799,41.432c1.372,1.329 2.651,2.75 3.829,4.254l91.283,116.612l226.184,288.989c0.104,0.132 0.206,0.265 0.308,0.399l147.066,192.659c4.123,5.402 6.751,11.553 7.891,17.909c10.232,8.062 16.257,20.606 15.857,33.974c-0.039,1.287 -0.137,2.563 -0.291,3.825c0.882,7.19 -0.105,14.635 -3.102,21.578l-31.082,72.016c3.877,8.12 5.152,17.526 3.083,26.912l-24.592,111.54c-0.152,0.691 -0.322,1.378 -0.51,2.061l-70.941,258.363l-64.392,244.139l31.783,-14.172c0.856,-0.382 1.724,-0.735 2.604,-1.058l248.496,-91.26c15.543,-5.708 32.99,-1.671 44.446,10.282c11.457,11.954 14.748,29.557 8.385,44.843c-15.908,38.216 -34.273,75.46 -53.471,112.335c0.009,0.043 0.018,0.087 0.027,0.13c3.378,16.391 1.453,34.853 -4.328,53.438c-5.629,18.094 -15.174,36.571 -21.082,51.46c-22.581,56.933 -43.947,114.417 -65.569,171.718c-59.315,157.279 -120.562,313.86 -179.319,471.365l-0.003,0.009c-25.411,68.07 -47.681,176.251 -93.618,232.371l-0.037,0.046c-10.794,13.148 -28.047,25.415 -49.18,35.216c-37.873,17.565 -89.49,28.503 -118.587,32.798c-4.855,0.716 -9.709,0.561 -14.365,-0.384c-11.241,7.508 -24.599,12.9 -40.908,15.514c-5.095,0.816 -10.214,0.669 -15.122,-0.358c-2.24,0.894 -4.574,1.601 -6.983,2.101l-87.581,18.19c-4.332,0.9 -8.78,1.104 -13.176,0.604l-223.14,-25.347c-6.847,-0.778 -13.289,-3.225 -18.823,-7.011c-0.36,-0.122 -0.719,-0.25 -1.078,-0.382l-53.556,-19.812c-9.278,3.078 -19.479,2.836 -28.772,-0.929c-11.074,-4.487 -20.38,-10.322 -28.214,-17.265c-2.933,0.126 -5.9,-0.058 -8.853,-0.567c-33.481,-5.764 -56.846,-18.019 -74.737,-35.124c-5.264,0.561 -10.672,0.122 -15.936,-1.394c-154.163,-44.392 -188.572,-160.936 -228.395,-297.045c-60.809,-207.831 -137.288,-415.002 -186.095,-625.913c-2.058,-8.894 -1.099,-17.902 2.309,-25.835c-6.809,-13.525 -13.454,-27.253 -19.438,-40.929c-15.621,-35.704 -26.728,-71.282 -28.13,-103.034c-1.19,-26.937 5.338,-57.461 15.739,-88.323c12.929,-38.362 31.871,-77.573 42.419,-109.214c45.56,-136.648 90.573,-273.447 135.146,-410.387c4.781,-14.689 17.157,-25.252 31.837,-28.041Zm7.784,40.937c-44.604,137.035 -89.648,273.927 -135.239,410.669c-17.601,52.797 -58.528,126.65 -56.06,182.52c3.005,68.049 61.522,155.63 88.446,218.01c67.033,155.318 133.235,310.997 199.97,466.44c41.346,96.303 82.744,192.595 123.889,288.991c24.154,56.6 36.087,104.992 103.561,116.61l-74.099,-385.322l-155.111,-816.268l-62.899,-334.618l-32.458,-147.032Zm20.285,-10.14c56.009,433.594 170.505,861.781 243.837,1292.85c17.861,104.981 38.548,209.918 59.43,314.339c7.774,38.868 5.194,89.667 46.659,106.468l-25.161,-1024.14l-5.269,-268.712l-5.214,-121.656l-86.071,-86.208l-228.211,-212.945Zm431.063,1733.94l186.074,-415.738l391.355,-872.035l139.208,-309.27l89.715,-207.868l-258.645,104.315l-420.921,173.167l-162.285,67.329l-57.797,32.366l1.565,109.536l5.322,228.156l15.414,775.703l5.072,207.871l5.213,84.01l60.71,22.458Zm-598.42,-968.363c48.629,210.141 124.904,416.533 185.491,623.605c35.596,121.663 62.135,229.026 199.934,268.706c-69.803,-204.994 -171.378,-404.438 -257.216,-603.326c-38.176,-88.454 -67.809,-214.25 -128.209,-288.985Zm1496.05,-35.496l-361.333,719.94l-135.665,278.851c37.532,-5.54 116.694,-22.838 141.646,-53.232c43.462,-53.097 62.782,-156.148 86.825,-220.551c58.773,-157.551 120.038,-314.18 179.37,-471.505c21.708,-57.527 43.159,-115.23 65.826,-172.38c9.286,-23.404 28.5,-56.04 23.331,-81.123Zm-121.715,-694.584l-765.771,1703.51l223.14,25.348l87.581,-18.19l34.129,-108.557l77.946,-294.062l247.385,-937.947l70.998,-258.566l24.592,-111.54Zm-431.064,1708.58c40.721,-6.525 50.461,-42.651 67.195,-76.047l101.431,-202.799c102.39,-204.76 206.908,-408.642 309.348,-613.469c43.005,-86.063 93.57,-169.632 130.591,-258.571l-248.496,91.26l-86.975,38.781l-24.598,77.829l-55.175,207.868l-131.858,496.861l-61.463,238.287Zm-461.496,-2256.14l20.285,801.057l258.638,-105.004l644.07,-265.102l-197.787,-95.628l-349.921,-164.257l-253.567,-119.659l-121.718,-51.407Zm10.145,-20.28l0,5.069l354.998,166.198l542.63,254.611l-147.066,-192.659l-226.183,-288.988l-91.282,-116.611l-42.799,-41.432l-106.3,52.332l-283.998,161.48Z" style="fill:#22272e;"/></g><clipPath id="_clip3"><rect id="crossinguard-math-text" serif:id="crossinguard math text" x="719.05" y="3028.71" width="2728.57" height="929.62"/></clipPath><g clip-path="url(#_clip3)"><g id="text"><path d="M947.045,3045.78l10.874,0c26.986,0 46.278,7.807 57.876,23.418l0,14.052c0,19.85 -7.304,29.774 -21.913,29.774c-10.594,-3.122 -22.025,-4.683 -34.292,-4.683c-76.499,0 -129.08,36.41 -157.739,109.23l-3.178,15.724l-0,4.683c-0,15.725 10.426,25.593 31.28,29.609c13.048,3.122 30.221,4.683 51.521,4.683l28.102,-0l0,3.178l-6.357,-0l-0,1.505c2.453,0 5.074,2.063 7.862,6.19l1.505,-0l0,4.684l-17.062,1.673l0,1.505l3.012,-0l-3.012,9.367l3.012,0l-0,3.178l-3.012,0l0,1.505c4.127,0 6.19,2.064 6.19,6.19l3.178,-0l-1.673,-1.505l-0,-1.507l1.673,-1.672l9.367,-0l0,3.179l1.505,1.505l-1.505,1.673l-4.683,-0l0,1.505l3.01,3.178l4.685,-0l-1.507,-1.673l0,-1.505l4.685,-1.505l4.683,1.505c-0,9.367 -36.41,14.051 -109.231,14.052c-45.943,-0.001 -78.228,-22.359 -96.851,-67.078l-0,-20.408c-0,-48.286 32.786,-99.807 98.358,-154.561c38.695,-27.098 81.908,-40.648 129.637,-40.648Zm-34.459,232.679l9.368,0l-0,3.178l-9.368,0l0,-3.178Z" style="fill:#119da4;fill-rule:nonzero;"/><path d="M1118.67,3031.22l13.048,-0c65.014,-0 103.376,21.354 115.085,64.065l1.505,8.866l0,4.349c0,12.825 -29.161,34.18 -87.484,64.067c14.609,61.891 21.913,105.104 21.913,129.637l1.505,1.505l0,1.338l-1.505,4.517l1.505,13.048l-1.505,1.505l-2.843,-0c-0,-3.903 -1.005,-5.854 -3.012,-5.854c0,2.898 -0.948,4.349 -2.843,4.349l-3.012,-0l-1.337,-1.506l-1.507,0c-1.449,3.903 -2.898,5.854 -4.348,5.854l-7.361,-1.505l-2.843,3.012c-0.669,-4.907 -3.122,-7.361 -7.36,-7.361c-15.5,-36.131 -29.05,-77.894 -40.647,-125.289l-65.572,21.913c-6.022,13.717 -10.873,21.467 -14.553,23.251l-1.505,7.361l-4.35,-0l5.855,-16.059l-0,-1.505l-1.505,-0l-7.361,16.059l3.011,3.01c-3.679,-0 -10.984,10.148 -21.913,30.444c-1.338,0.112 -4.237,6.468 -8.698,19.069c-2.007,0 -6.858,9.702 -14.553,29.106l-1.506,-0c0,-4.461 -4.851,-8.364 -14.552,-11.71l-2.844,3.012c-0,-2.007 -1.505,-3.012 -4.517,-3.012l-4.349,1.507c-2.119,-5.241 -5.018,-8.141 -8.697,-8.699l-0,-4.517c-0,-23.529 26.708,-88.6 80.124,-195.209c-20.408,-13.828 -30.611,-24.979 -30.611,-33.454l0,-7.194c0.781,-5.129 18.734,-13.884 53.862,-26.261c4.907,-7.807 30.667,-11.709 77.28,-11.709Zm-46.669,115.084l3.011,-0c58.323,-24.979 93.729,-44.885 106.219,-59.717l0,-1.505l-29.105,-1.339l-2.844,0c-36.912,0 -55.368,4.35 -55.368,13.048c-11.486,29.329 -18.79,45.833 -21.913,49.513Z" style="fill:#119da4;fill-rule:nonzero;"/><path d="M1415.58,3035.74l1.673,0c10.594,0 21.299,10.204 32.117,30.611l1.673,1.673l-0,7.527c-0,4.795 -8.03,8.922 -24.088,12.378l-0,1.505c24.645,30.556 36.967,59.161 36.967,85.813l0,7.694c0,66.018 -28.436,108.45 -85.31,127.296c-19.403,5.13 -35.462,7.694 -48.174,7.694l-17.732,0c-49.959,0 -85.923,-25.537 -107.892,-76.611c-3.122,-0.669 -5.241,-9.869 -6.356,-27.6l-0,-10.873c-0,-49.513 35.908,-94.454 107.724,-134.823c45.388,-21.523 81.854,-32.284 109.398,-32.284Zm-157.573,180.991l0,1.505c0,17.731 11.263,27.935 33.79,30.612l12.88,-0c34.682,-0 66.854,-19.906 96.517,-59.717c4.572,-10.483 7.75,-24.311 9.535,-41.485c-1.004,-14.274 -2.565,-22.972 -4.684,-26.095l1.506,-4.516c-2.899,-15.389 -5.019,-23.084 -6.357,-23.084c-31.559,4.238 -68.025,24.701 -109.397,61.39c-22.527,21.857 -33.79,42.321 -33.79,61.39Z" style="fill:#119da4;fill-rule:nonzero;"/><path d="M1676.03,3028.71l3.178,0c4.684,0 10.93,3.624 18.735,10.873l1.506,1.506l1.505,0l-1.505,6.188l1.505,18.735c-1.672,16.616 -7.36,24.925 -17.062,24.925l-9.367,-0c-40.592,-0 -91.388,13.994 -152.388,41.985l0,3.011l1.507,0c75.384,6.245 116.869,16.616 124.451,31.113c7.249,4.238 10.873,11.542 10.873,21.913c-2.788,34.124 -6.914,51.186 -12.378,51.186c-23.418,17.508 -49.346,31.503 -77.783,41.986c-42.71,14.609 -101.312,31.225 -175.805,49.848l-1.506,-1.505l0,-1.673l10.874,-4.517l-0,-3.178l-17.062,3.178l-0,-1.672c-0,-2.342 2.564,-3.903 7.694,-4.685l0,-3.01l-4.684,-0l0,-3.178l3.178,-0l0,-1.506l-9.367,-3.178l1.506,-1.505l-0,-4.685c-4.126,0 -6.19,-1.561 -6.19,-4.683l-1.505,1.505l-3.179,0l0,-1.505l1.506,-1.505l0,-1.506l-3.011,-0c0,-2.118 -1.561,-3.178 -4.683,-3.178l-0,-1.506c-0,-5.241 41.985,-19.793 125.957,-43.658c55.758,-19.293 87.931,-32.228 96.518,-38.808c-88.21,-5.799 -132.314,-15.166 -132.314,-28.102c-10.372,-6.691 -15.557,-16.504 -15.557,-29.44c0,-11.933 6.245,-25.928 18.735,-41.987c75.831,-51.854 147.87,-77.782 216.118,-77.782Zm-278.344,276.84l-0,1.505l3.178,-0l-0,-1.505l-3.178,-0Z" style="fill:#119da4;fill-rule:nonzero;"/><path d="M1857.52,3028.71l3.178,0c4.684,0 10.928,3.624 18.735,10.873l1.505,1.506l1.506,0l-1.506,6.188l1.506,18.735c-1.673,16.616 -7.36,24.925 -17.062,24.925l-9.367,-0c-40.592,-0 -91.388,13.994 -152.388,41.985l0,3.011l1.506,0c75.385,6.245 116.869,16.616 124.452,31.113c7.249,4.238 10.873,11.542 10.873,21.913c-2.788,34.124 -6.914,51.186 -12.378,51.186c-23.419,17.508 -49.347,31.503 -77.783,41.986c-42.71,14.609 -101.313,31.225 -175.806,49.848l-1.505,-1.505l-0,-1.673l10.872,-4.517l0,-3.178l-17.062,3.178l0,-1.672c0,-2.342 2.566,-3.903 7.695,-4.685l-0,-3.01l-4.683,-0l-0,-3.178l3.178,-0l-0,-1.506l-9.368,-3.178l1.507,-1.505l-0,-4.685c-4.127,0 -6.19,-1.561 -6.19,-4.683l-1.505,1.505l-3.179,0l-0,-1.505l1.506,-1.505l0,-1.506l-3.011,-0c-0,-2.118 -1.561,-3.178 -4.683,-3.178l-0,-1.506c-0,-5.241 41.985,-19.793 125.957,-43.658c55.758,-19.293 87.931,-32.228 96.517,-38.808c-88.209,-5.799 -132.314,-15.166 -132.314,-28.102c-10.371,-6.691 -15.556,-16.504 -15.556,-29.44c-0,-11.933 6.244,-25.928 18.735,-41.987c75.831,-51.854 147.87,-77.782 216.118,-77.782Zm-278.345,276.84l0,1.505l3.178,-0l0,-1.505l-3.178,-0Z" style="fill:#119da4;fill-rule:nonzero;"/><path d="M1915.56,3044.77l9.201,0c18.511,0 32.896,8.197 43.156,24.59l0,6.189c0,2.899 -9.758,20.351 -29.273,52.357l-67.746,140.176c-8.81,16.169 -14.999,25.426 -18.567,27.768l-1.505,-1.673l-1.507,-0l-3.178,7.694l-3.01,0l3.01,-10.706l-16.894,27.768l-1.505,0l-1.506,-1.505l-0,-1.673l1.506,-1.505l-0,-3.011l-1.506,-0l-6.19,13.884l-3.178,-0l0,-1.673l3.178,-7.695l-24.756,20.073l-4.516,-3.011l1.505,-1.672l0,-4.517l-4.684,3.011l-3.01,-3.011c-0,-13.494 36.967,-101.312 110.903,-263.457c4.461,-12.267 11.151,-18.401 20.072,-18.401Zm-29.607,200.396l-0,2.509l1.338,0l0,-2.509l-1.338,-0Z" style="fill:#119da4;fill-rule:nonzero;"/><path d="M2190.9,3035.07l10.539,0c13.382,0 24.422,6.023 33.12,18.066l-0,4.517l-57.208,147.369c-14.051,25.983 -28.103,62.616 -42.153,109.899l-4.517,4.517l-4.516,-0l-6.022,-4.517l-1.505,1.505l-7.528,0l-7.527,-4.516l-15.055,1.506l-12.043,-13.55l-0,-10.538c-0,-4.461 3.512,-14.999 10.538,-31.615l-38.975,-93.172l-12.044,-36.132l-1.506,0l-60.218,126.293c-7.026,14.386 -12.044,30.946 -15.055,49.681l1.506,1.505l-0,1.505c-1.673,8.03 -3.68,12.045 -6.022,12.045l-4.517,-0l-15.054,-9.034l-3.012,0l-6.022,1.506l-4.516,-1.506l-3.01,3.012l-1.507,-1.506l-1.505,-0l-1.505,1.506l-13.55,-18.066l0,-6.022c0,-18.066 23.586,-73.211 70.758,-165.434l36.131,-76.779c5.464,-4.35 22.471,-7.36 51.019,-9.033c6.802,-0 13.828,5.018 21.076,15.054l0,1.506c0,28.436 13.048,70.533 39.143,126.292c14.05,-24.088 29.607,-65.181 46.669,-123.281c3.457,-13.048 9.48,-19.571 18.065,-19.571c0,-1.785 2.51,-2.788 7.528,-3.012Z" style="fill:#119da4;fill-rule:nonzero;"/><path d="M2409.52,3044.44l4.85,-0c28.103,-0 47.618,12.155 58.547,36.465c-2.565,22.193 -6.246,33.288 -11.041,33.288l-1.672,0c-6.579,0 -17.675,-3.178 -33.288,-9.534l-31.615,-3.178c-57.654,-0 -106.219,23.752 -145.696,71.258c-16.95,22.973 -25.425,47.785 -25.425,74.438c-0,14.831 11.096,22.247 33.287,22.247c13.382,0 32.396,-4.238 57.041,-12.713l-0,-1.505l-1.673,-0l-45.833,3.178c-0,-2.9 -4.237,-6.635 -12.713,-11.207l1.506,-1.506l-0,-1.672l-9.368,-0l0,-3.179l9.368,-1.505l-0,-1.506l-12.546,-1.672l0,-3.178l4.683,-0l0,-1.506l-7.861,0l0,-1.672l3.178,-4.685c-7.472,0 -11.208,-1.059 -11.208,-3.178c0,-7.026 64.958,-21.801 194.875,-44.328c12.155,0 21.132,7.36 26.932,22.081l1.672,4.851c0,10.928 -7.416,22.526 -22.247,34.793c0,10.371 -26.373,31.504 -79.121,63.397c-24.756,13.716 -49.067,20.574 -72.932,20.574l-14.218,0c-47.395,0 -79.121,-24.31 -95.179,-72.931l-1.505,-14.218l-0,-9.536c-0,-38.138 29.551,-84.082 88.655,-137.833c43.714,-29.552 93.897,-44.328 150.547,-44.328Z" style="fill:#119da4;fill-rule:nonzero;"/><path d="M2531.63,3036.07l7.36,0c15.501,0 28.158,8.253 37.972,24.757l1.337,5.854c0,8.141 -10.704,32.507 -32.115,73.099c-22.415,44.05 -33.623,84.418 -33.623,121.107l-0,4.349c25.202,-16.392 45.666,-36.354 61.39,-59.884c37.023,-47.171 58.936,-81.24 65.738,-102.204l8.699,-18.903c2.9,0 4.349,-1.449 4.349,-4.349l1.505,-1.505l3.012,0l-0,5.854l1.338,0c2.676,-16.504 5.129,-24.756 7.359,-24.756l1.506,-0l0,5.855l1.338,-0l-0,-11.709l3.011,-0l0,4.348c3.458,-1.784 7.807,-9.089 13.048,-21.913l1.505,0c9.702,9.034 14.553,23.14 14.553,42.321c-0,64.233 -41.317,137.221 -123.95,218.962c-15.835,9.813 -33.846,14.72 -54.03,14.72c-37.358,0 -62.226,-13.66 -74.604,-40.982l-2.844,-17.564l0,-7.193c0,-38.362 7.806,-72.43 23.418,-102.204l37.971,-89.158c8.253,-12.601 16.505,-18.902 24.757,-18.902Z" style="fill:#119da4;fill-rule:nonzero;"/><path d="M2848.63,3042.76c26.875,-0 43.324,7.974 49.346,23.92c3.457,14.164 7.639,42.265 12.546,84.307l1.505,1.505c0.558,6.58 1.951,9.87 4.182,9.87l44.997,-5.688l-0,2.844l1.505,0l22.415,-1.338l-0,2.676l-9.87,2.843l0,1.506l9.87,0l9.869,-1.506l0,2.844c-9.591,3.792 -17.062,5.687 -22.415,5.687l0,2.844l7.026,-1.505c6.468,1.895 9.702,3.792 9.702,5.687l7.193,-1.505c18.734,0.557 28.102,2.453 28.102,5.687l-1.505,1.339l9.868,2.842l0,2.844c-12.712,6.58 -38.975,12.211 -78.786,16.895l-25.258,4.183c12.155,47.728 18.233,80.124 18.233,97.186l0,5.52l-4.182,4.349l-1.505,0c-3.123,0 -6.357,-1.45 -9.702,-4.349l-0,4.349l-2.844,0l0,-2.844l-4.35,2.844l-5.519,-4.349l-14.051,5.688l-11.375,-11.208c-4.684,-7.583 -11.71,-35.295 -21.076,-83.136l-1.339,0c-59.104,16.282 -88.656,28.995 -88.656,38.139c-3.79,2.341 -15.054,16.838 -33.789,43.491c-6.468,7.583 -11.653,11.375 -15.556,11.375l-2.844,-7.026l-1.338,1.339l-1.339,-0c-5.687,-3.346 -8.531,-7.082 -8.531,-11.208l-1.337,1.338l-2.844,0l0,-2.843c-3.904,-0 -7.639,-2.788 -11.208,-8.364c-3.791,0 -5.687,-0.948 -5.687,-2.843l-0,-9.87c-0,-10.482 11.264,-27.823 33.789,-52.023c9.59,-15.946 25.091,-38.026 46.503,-66.24l47.841,-84.306l9.701,-28.269c5.018,-3.681 9.256,-5.521 12.713,-5.521Zm-11.207,136.496l-0,1.339c15.947,-4.127 23.92,-6.914 23.92,-8.365l-4.182,-22.581c-2.565,1.114 -9.144,10.984 -19.738,29.607Zm130.809,-23.92l2.843,-0l0,2.844l-2.843,-0l-0,-2.844Zm1.505,9.869l-0,1.338l2.843,-0l0,-1.338l-2.843,0Z" style="fill:#119da4;fill-rule:nonzero;"/><path d="M3092.17,3031.22l13.047,-0c65.014,-0 103.376,21.354 115.086,64.065l1.505,8.866l-0,4.349c-0,12.825 -29.162,34.18 -87.484,64.067c14.608,61.891 21.913,105.104 21.913,129.637l1.505,1.505l-0,1.338l-1.505,4.517l1.505,13.048l-1.505,1.505l-2.844,-0c-0,-3.903 -1.004,-5.854 -3.011,-5.854c-0,2.898 -0.949,4.349 -2.844,4.349l-3.012,-0l-1.337,-1.506l-1.506,0c-1.449,3.903 -2.899,5.854 -4.349,5.854l-7.36,-1.505l-2.844,3.012c-0.669,-4.907 -3.122,-7.361 -7.36,-7.361c-15.5,-36.131 -29.05,-77.894 -40.647,-125.289l-65.572,21.913c-6.022,13.717 -10.873,21.467 -14.553,23.251l-1.505,7.361l-4.35,-0l5.855,-16.059l0,-1.505l-1.505,-0l-7.36,16.059l3.01,3.01c-3.68,-0 -10.984,10.148 -21.913,30.444c-1.337,0.112 -4.237,6.468 -8.698,19.069c-2.007,0 -6.858,9.702 -14.552,29.106l-1.507,-0c0,-4.461 -4.85,-8.364 -14.552,-11.71l-2.844,3.012c0,-2.007 -1.505,-3.012 -4.516,-3.012l-4.349,1.507c-2.119,-5.241 -5.019,-8.141 -8.699,-8.699l-0,-4.517c-0,-23.529 26.709,-88.6 80.125,-195.209c-20.408,-13.828 -30.612,-24.979 -30.612,-33.454l0,-7.194c0.782,-5.129 18.735,-13.884 53.863,-26.261c4.907,-7.807 30.667,-11.709 77.281,-11.709Zm-46.67,115.084l3.011,-0c58.323,-24.979 93.73,-44.885 106.219,-59.717l0,-1.505l-29.105,-1.339l-2.844,0c-36.912,0 -55.368,4.35 -55.368,13.048c-11.486,29.329 -18.79,45.833 -21.913,49.513Z" style="fill:#119da4;fill-rule:nonzero;"/><path d="M3311.97,3044.27l7.36,0c38.25,0 73.935,11.597 107.055,34.793c13.494,13.047 20.24,25.593 20.24,37.636c0,27.21 -28.436,68.695 -85.31,124.453c-29.886,21.968 -59.828,39.365 -89.825,52.189c-34.348,10.037 -55.591,18.233 -63.732,24.589l-15.891,-1.505c-17.955,8.699 -29.051,13.048 -33.288,13.048l-1.505,-1.505l4.349,-7.194l-1.339,-0l-8.697,2.844l-1.507,-8.698l2.844,-5.687l-1.337,-0l-7.194,2.843l-1.505,-1.505l-0,-1.338l1.505,-4.349l-1.505,-0l-5.855,1.505c-2.899,-0 -4.349,-1.951 -4.349,-5.855c-4.795,-0.669 -7.193,-2.118 -7.193,-4.349c4.237,-4.572 10.539,-8.419 18.902,-11.542c16.505,-12.601 39.143,-52.19 67.914,-118.765c17.396,-40.034 26.095,-62.727 26.095,-68.08c-17.508,-0 -31.002,-11.543 -40.481,-34.626c-0,-8.141 38.083,-14.441 114.249,-18.902Zm-63.565,194.039c81.965,-38.251 122.947,-74.438 122.947,-108.562c0,-22.415 -17.842,-36.41 -53.528,-41.985c-7.137,-0 -12.434,8.641 -15.89,25.927l-53.529,124.62Z" style="fill:#119da4;fill-rule:nonzero;"/><path d="M1174.27,3345.59l15.055,0c22.973,0 43.045,15.055 60.219,45.165l-6.022,120.437c0,33.901 5.018,61.111 15.055,81.63c4.237,-0.223 24.421,-20.407 60.552,-60.554c6.692,-2.007 46.838,-41.148 120.439,-117.426c27.655,-38.138 55.869,-57.207 84.64,-57.207l21.077,-3.012c19.627,4.461 30.667,10.483 33.121,18.066c4.46,0 13.492,8.029 27.098,24.087l-0,6.022c-0,20.296 -29.217,94.678 -87.652,223.145c-19.85,48.175 -32.897,72.263 -39.143,72.263l3.012,3.01l-0,3.011l-39.143,78.285c-3.568,0.222 -19.626,33.454 -48.175,99.695l-21.076,27.099l-21.077,0l0,-6.023l-12.044,6.023c-0,-4.461 -7.025,-8.476 -21.077,-12.044l-6.021,6.021c-5.576,-0.668 -9.59,-5.687 -12.044,-15.054c-8.029,-0 -12.043,-2.008 -12.043,-6.022l-0,-21.077c-0,-39.031 30.108,-114.415 90.328,-226.155c-31.449,28.995 -61.557,65.126 -90.328,108.394c-6.692,-0 -15.835,6.023 -27.434,18.066l-3.01,0c-21.412,-14.943 -41.484,-23.976 -60.219,-27.098c-20.296,-13.828 -38.362,-54.978 -54.198,-123.449l-3.01,0c-87.652,201.175 -135.938,305.667 -144.86,313.472l-6.021,-0l-15.055,-9.032l-9.033,3.01l-3.012,-3.01l-3.01,3.01l-6.022,-12.043l-6.023,6.021l-3.01,-3.01l-27.098,6.022c-4.461,-10.929 -10.483,-16.951 -18.066,-18.066l-0,-12.044c-0,-48.174 57.319,-184.894 171.958,-410.157c26.987,-82.299 49.068,-123.448 66.24,-123.448l36.132,-6.023Z" style="fill:#bf4e30;fill-rule:nonzero;"/><path d="M1852.07,3363.33c53.752,0 86.649,15.946 98.693,47.84c6.914,28.325 15.278,84.53 25.09,168.612l3.012,3.012c1.115,13.159 3.903,19.738 8.363,19.738l89.995,-11.375l-0,5.687l3.01,0l44.83,-2.675l0,5.352l-19.739,5.688l-0,3.01l19.739,0l19.738,-3.01l-0,5.687c-19.181,7.583 -34.124,11.375 -44.829,11.375l0,5.687l14.051,-3.011c12.935,3.792 19.403,7.583 19.403,11.375l14.386,-3.011c37.469,1.115 56.204,4.906 56.204,11.374l-3.01,2.677l19.738,5.687l-0,5.688c-25.426,13.158 -77.95,24.422 -157.573,33.789l-50.516,8.364c24.31,95.458 36.465,160.248 36.465,194.372l0,11.041l-8.363,8.698l-3.011,0c-6.246,0 -12.714,-2.899 -19.404,-8.698l-0,8.698l-5.687,0l-0,-5.687l-8.699,5.687l-11.04,-8.698l-28.102,11.374l-22.749,-22.415c-9.368,-15.165 -23.419,-70.589 -42.154,-166.27l-2.676,-0c-118.208,32.563 -177.311,57.988 -177.311,76.277c-7.583,4.683 -30.11,33.678 -67.579,86.983c-12.936,15.166 -23.307,22.749 -31.113,22.749l-5.687,-14.051l-2.676,2.677l-2.677,-0c-11.375,-6.692 -17.062,-14.164 -17.062,-22.415l-2.676,2.676l-5.688,-0l0,-5.688c-7.806,0 -15.277,-5.575 -22.415,-16.727c-7.583,-0 -11.374,-1.896 -11.374,-5.688l-0,-19.738c-0,-20.964 22.526,-55.646 67.579,-104.045c19.18,-31.893 50.182,-76.053 93.005,-132.481l95.68,-168.613l19.404,-56.539c10.036,-7.359 18.511,-11.039 25.425,-11.039Zm-22.414,272.992l0,2.677c31.894,-8.253 47.841,-13.829 47.841,-16.728l-8.365,-45.165c-5.129,2.23 -18.288,21.969 -39.476,59.216Zm261.617,-47.841l5.688,0l-0,5.688l-5.688,-0l0,-5.688Zm3.012,19.738l-0,2.677l5.687,0l0,-2.677l-5.687,0Z" style="fill:#bf4e30;fill-rule:nonzero;"/><path d="M2395.37,3332.88l59.884,3.01l59.885,0c11.597,0 20.072,5.353 25.425,16.059l-3.346,3.011c10.484,0.669 15.725,3.792 15.725,9.367l-0,3.346l-34.459,-0l0,3.011l12.378,0l0,6.356l-6.022,0l3.011,3.346l-3.011,3.01l0,6.358l15.724,3.01l-0,3.346l-3.346,3.01l0,3.346c12.713,-0 19.069,8.364 19.069,25.091c8.477,1.116 12.714,4.238 12.714,9.367l-0,6.357l-186.344,22.08c-15.836,-0 -28.437,19.961 -37.804,59.885c-111.07,216.341 -177.423,354.175 -199.056,413.502c-12.714,12.713 -23.196,19.069 -31.449,19.069l-12.713,-12.713c-12.489,-0 -18.734,-5.241 -18.734,-15.724l-3.345,3.346l-3.012,0c-0.446,-5.353 -10.928,-14.832 -31.447,-28.437l-9.702,-16.058c0,-42.376 50.517,-154.896 151.55,-337.56l25.427,-59.884l-117.093,18.734c-44.16,0 -73.601,-19.96 -88.32,-59.884l-9.368,-37.804l0,-6.356c0,-13.382 8.364,-25.983 25.091,-37.804l41.15,-0c66.017,-0 176.53,-11.597 331.538,-34.793Z" style="fill:#bf4e30;fill-rule:nonzero;"/><path d="M2698.8,3348.27c30.11,0 62.561,24.979 97.354,74.939c-0,17.62 -15.724,54.197 -47.171,109.732l-28.102,62.561l6.356,0l191.028,-50.183c28.547,-73.154 58.769,-135.715 90.662,-187.681l31.448,-9.368c23.196,0.669 52.413,20.519 87.652,59.55l-0,18.735c-0,14.943 -20.854,54.531 -62.561,118.764c-12.713,31.894 -19.069,53.863 -19.069,65.907l9.367,9.367l0,6.356l-37.469,18.735c-0,6.245 -4.127,9.367 -12.378,9.367l-0,3.012l3.01,3.344l0,3.012c-3.568,-0 -6.69,6.244 -9.367,18.735c-5.353,-0 -12.713,11.485 -22.08,34.458l-3.011,0l-3.011,-3.011l-3.345,-0c-0,17.396 -10.372,27.768 -31.114,31.114l3.011,3.344l0,6.357c-6.245,0 -9.367,3.123 -9.367,9.368l-6.356,-0l-3.012,12.378l3.012,3.011l-0,6.356l-3.012,0l-9.367,-3.011l-0,9.367l-3.01,0l3.01,3.012l-0,3.345c-16.728,16.282 -28.213,42.376 -34.459,78.285c0,10.036 -6.244,23.53 -18.735,40.48l-3.344,-0l-3.012,-3.011l-3.011,0l-9.367,9.367c-0,-4.237 -11.486,-7.359 -34.459,-9.367l-3.345,-12.713l-3.011,3.346l-3.011,0c-6.245,-7.584 -9.368,-15.947 -9.368,-25.092c0,-39.253 17.732,-93.562 53.194,-162.925l15.39,-37.47l-3.012,0l-222.14,56.205c-4.907,12.712 -9.144,19.069 -12.713,19.069l-3.011,-3.345l-3.346,-0c-14.497,16.504 -29.105,48.844 -43.826,97.019l-40.48,62.895l-3.345,0l-0,-6.356l-12.378,9.367l-43.826,-15.724c-0,-10.482 -5.241,-15.724 -15.725,-15.724l0,-18.735c0,-23.864 21.969,-77.057 65.907,-159.58l3.011,-15.723c-6.245,-2.007 -9.367,-8.253 -9.367,-18.735l-0,-25.091c34.793,-18.065 54.642,-36.912 59.549,-56.539l65.571,-156.569l-3.01,-3.011l-0,-3.01l28.102,-62.561l37.469,-15.724Z" style="fill:#bf4e30;fill-rule:nonzero;"/></g></g></g><defs><linearGradient id="_Linear1" x1="0" y1="0" x2="1" y2="0" gradientUnits="userSpaceOnUse" gradientTransform="matrix(2603.49,0,0,2609.25,781.586,1603.06)"><stop offset="0" style="stop-color:#f2f2f2;stop-opacity:1"/><stop offset="1" style="stop-color:#f2f2f2;stop-opacity:1"/></linearGradient><linearGradient id="_Linear2" x1="0" y1="0" x2="1" y2="0" gradientUnits="userSpaceOnUse" gradientTransform="matrix(1.65521e-13,2703.16,-2709.14,1.65887e-13,2085.2,-21.7892)"><stop offset="0" style="stop-color:#f2f2f2;stop-opacity:0"/><stop offset="0.69" style="stop-color:#f2f2f2;stop-opacity:0"/><stop offset="1" style="stop-color:#bf4e30;stop-opacity:1"/></linearGradient></defs></svg>