<?xml version="1.0" encoding="UTF-8" standalone="no"?><!DOCTYPE svg PUBLIC "-//W3C//DTD SVG 1.1//EN" "http://www.w3.org/Graphics/SVG/1.1/DTD/svg11.dtd"><svg width="100%" height="100%" viewBox="0 0 2489 848" version="1.1" xmlns="http://www.w3.org/2000/svg" xmlns:xlink="http://www.w3.org/1999/xlink" xml:space="preserve" xmlns:serif="http://www.serif.com/" style="fill-rule:evenodd;clip-rule:evenodd;stroke-linejoin:round;stroke-miterlimit:2;"><g id="text"><path d="M207.977,15.564l9.919,-0c24.617,-0 42.215,7.121 52.795,21.362l-0,12.818c-0,18.107 -6.663,27.16 -19.989,27.16c-9.664,-2.848 -20.091,-4.272 -31.281,-4.272c-69.783,-0 -117.747,33.213 -143.89,99.64l-2.899,14.343l-0,4.272c-0,14.344 9.511,23.346 28.534,27.009c11.902,2.848 27.567,4.272 46.997,4.272l25.635,-0l-0,2.899l-5.799,0l0,1.373c2.238,0 4.629,1.882 7.172,5.646l1.373,0l0,4.273l-15.564,1.526l0,1.373l2.747,-0l-2.747,8.545l2.747,-0l-0,2.899l-2.747,-0l0,1.373c3.764,0 5.646,1.882 5.646,5.646l2.899,-0l-1.526,-1.373l0,-1.374l1.526,-1.526l8.545,0l0,2.9l1.373,1.373l-1.373,1.526l-4.272,-0l-0,1.373l2.746,2.899l4.273,0l-1.374,-1.526l0,-1.373l4.273,-1.373l4.272,1.373c0,8.545 -33.213,12.817 -99.64,12.818c-41.91,-0.001 -71.36,-20.396 -88.348,-61.188l0,-18.616c0,-44.047 29.907,-91.044 89.722,-140.991c35.298,-24.719 74.717,-37.079 118.255,-37.079Zm-31.433,212.25l8.545,-0l0,2.899l-8.545,-0l0,-2.899Z" style="fill:#119da4;fill-rule:nonzero;"/><path d="M364.532,2.289l11.902,-0c59.306,-0 94.3,19.48 104.981,58.441l1.373,8.087l0,3.967c0,11.699 -26.601,31.179 -79.803,58.442c13.326,56.457 19.989,95.876 19.989,118.255l1.373,1.373l-0,1.221l-1.373,4.12l1.373,11.902l-1.373,1.373l-2.594,0c-0,-3.56 -0.916,-5.34 -2.747,-5.34c0,2.644 -0.865,3.967 -2.594,3.967l-2.747,-0l-1.22,-1.373l-1.374,-0c-1.322,3.56 -2.644,5.34 -3.967,5.34l-6.714,-1.373l-2.594,2.747c-0.61,-4.476 -2.848,-6.714 -6.714,-6.714c-14.139,-32.959 -26.499,-71.055 -37.078,-114.289l-59.815,19.989c-5.493,12.513 -9.918,19.582 -13.275,21.21l-1.373,6.714l-3.968,-0l5.341,-14.649l0,-1.373l-1.373,0l-6.714,14.649l2.746,2.746c-3.356,0 -10.019,9.257 -19.989,27.771c-1.22,0.102 -3.865,5.9 -7.934,17.395c-1.831,0 -6.256,8.85 -13.275,26.55l-1.374,0c0,-4.069 -4.425,-7.629 -13.275,-10.681l-2.594,2.747c0,-1.831 -1.373,-2.747 -4.12,-2.747l-3.967,1.374c-1.933,-4.781 -4.578,-7.426 -7.934,-7.935l-0,-4.12c-0,-21.464 24.363,-80.821 73.089,-178.07c-18.616,-12.614 -27.923,-22.786 -27.923,-30.517l-0,-6.562c0.712,-4.679 17.089,-12.665 49.133,-23.956c4.476,-7.121 27.974,-10.681 70.495,-10.681Zm-42.572,104.98l2.747,0c53.202,-22.786 85.5,-40.944 96.893,-54.474l0,-1.373l-26.55,-1.221l-2.594,0c-33.671,0 -50.507,3.968 -50.507,11.902c-10.477,26.754 -17.14,41.809 -19.989,45.166Z" style="fill:#119da4;fill-rule:nonzero;"/><path d="M635.376,6.409l1.526,-0c9.664,-0 19.429,9.308 29.297,27.923l1.526,1.526l-0,6.867c-0,4.374 -7.325,8.138 -21.973,11.291l-0,1.373c22.481,27.873 33.722,53.966 33.722,78.278l-0,7.019c-0,60.221 -25.94,98.928 -77.82,116.119c-17.7,4.68 -32.349,7.019 -43.945,7.019l-16.175,0c-45.572,0 -78.379,-23.295 -98.419,-69.885c-2.848,-0.61 -4.781,-9.002 -5.798,-25.177l-0,-9.918c-0,-45.166 32.755,-86.161 98.266,-122.986c41.403,-19.633 74.667,-29.449 99.793,-29.449Zm-143.738,165.1l0,1.373c0,16.174 10.274,25.482 30.823,27.924l11.749,-0c31.637,-0 60.984,-18.158 88.043,-54.474c4.171,-9.562 7.07,-22.176 8.698,-37.842c-0.916,-13.021 -2.34,-20.955 -4.273,-23.804l1.374,-4.12c-2.645,-14.038 -4.578,-21.057 -5.799,-21.057c-28.788,3.866 -62.052,22.532 -99.792,56c-20.549,19.938 -30.823,38.605 -30.823,56Z" style="fill:#119da4;fill-rule:nonzero;"/><path d="M872.955,0l2.899,0c4.273,0 9.97,3.306 17.09,9.918l1.374,1.374l1.373,-0l-1.373,5.645l1.373,17.09c-1.526,15.157 -6.714,22.736 -15.564,22.736l-8.545,-0c-37.028,-0 -83.364,12.766 -139.008,38.299l0,2.747l1.374,-0c68.766,5.696 106.608,15.157 113.525,28.381c6.612,3.866 9.918,10.529 9.918,19.989c-2.543,31.128 -6.307,46.692 -11.291,46.692c-21.362,15.971 -45.014,28.737 -70.954,38.3c-38.96,13.326 -92.417,28.483 -160.369,45.471l-1.374,-1.373l0,-1.526l9.919,-4.12l-0,-2.899l-15.564,2.899l-0,-1.526c-0,-2.136 2.339,-3.56 7.019,-4.273l-0,-2.746l-4.273,-0l0,-2.899l2.899,-0l0,-1.374l-8.545,-2.899l1.374,-1.373l-0,-4.273c-3.764,0 -5.646,-1.424 -5.646,-4.272l-1.373,1.373l-2.9,0l0,-1.373l1.374,-1.373l-0,-1.374l-2.747,0c0,-1.932 -1.424,-2.899 -4.272,-2.899l-0,-1.373c-0,-4.781 38.299,-18.056 114.898,-39.825c50.863,-17.599 80.211,-29.399 88.044,-35.401c-80.465,-5.29 -120.697,-13.834 -120.697,-25.635c-9.461,-6.103 -14.191,-15.055 -14.191,-26.855c-0,-10.885 5.697,-23.651 17.09,-38.3c69.173,-47.302 134.887,-70.953 197.143,-70.953Zm-253.906,252.533l0,1.373l2.899,0l0,-1.373l-2.899,-0Z" style="fill:#119da4;fill-rule:nonzero;"/><path d="M1038.51,0l2.899,0c4.273,0 9.969,3.306 17.09,9.918l1.373,1.374l1.374,-0l-1.374,5.645l1.374,17.09c-1.526,15.157 -6.714,22.736 -15.564,22.736l-8.545,-0c-37.028,-0 -83.364,12.766 -139.008,38.299l0,2.747l1.374,-0c68.766,5.696 106.608,15.157 113.525,28.381c6.612,3.866 9.918,10.529 9.918,19.989c-2.543,31.128 -6.307,46.692 -11.291,46.692c-21.363,15.971 -45.014,28.737 -70.954,38.3c-38.96,13.326 -92.417,28.483 -160.37,45.471l-1.373,-1.373l0,-1.526l9.918,-4.12l0,-2.899l-15.564,2.899l0,-1.526c0,-2.136 2.34,-3.56 7.019,-4.273l0,-2.746l-4.272,-0l0,-2.899l2.899,-0l0,-1.374l-8.545,-2.899l1.374,-1.373l-0,-4.273c-3.764,0 -5.646,-1.424 -5.646,-4.272l-1.373,1.373l-2.9,0l0,-1.373l1.374,-1.373l-0,-1.374l-2.747,0c0,-1.932 -1.424,-2.899 -4.272,-2.899l-0,-1.373c-0,-4.781 38.299,-18.056 114.898,-39.825c50.863,-17.599 80.211,-29.399 88.043,-35.401c-80.464,-5.29 -120.697,-13.834 -120.697,-25.635c-9.46,-6.103 -14.19,-15.055 -14.19,-26.855c-0,-10.885 5.696,-23.651 17.09,-38.3c69.173,-47.302 134.887,-70.953 197.143,-70.953Zm-253.906,252.533l-0,1.373l2.899,0l0,-1.373l-2.899,-0Z" style="fill:#119da4;fill-rule:nonzero;"/><path d="M1091.46,14.648l8.393,0c16.886,0 30.008,7.477 39.367,22.431l0,5.646c0,2.644 -8.901,18.564 -26.703,47.76l-61.798,127.868c-8.036,14.75 -13.682,23.194 -16.937,25.33l-1.373,-1.526l-1.374,-0l-2.899,7.019l-2.746,0l2.746,-9.766l-15.411,25.33l-1.373,-0l-1.374,-1.373l0,-1.526l1.374,-1.373l-0,-2.747l-1.374,-0l-5.646,12.665l-2.899,-0l0,-1.526l2.899,-7.019l-22.583,18.31l-4.119,-2.746l1.373,-1.526l-0,-4.12l-4.273,2.747l-2.746,-2.747c-0,-12.309 33.722,-92.417 101.166,-240.326c4.069,-11.19 10.172,-16.785 18.31,-16.785Zm-27.008,182.801l0,2.289l1.221,-0l-0,-2.289l-1.221,-0Z" style="fill:#119da4;fill-rule:nonzero;"/><path d="M1342.62,5.798l9.613,0c12.207,0 22.278,5.494 30.212,16.48l0,4.12l-52.185,134.43c-12.817,23.702 -25.635,57.118 -38.452,100.25l-4.12,4.12l-4.12,-0l-5.493,-4.12l-1.373,1.373l-6.867,0l-6.866,-4.12l-13.733,1.374l-10.986,-12.36l-0,-9.613c-0,-4.069 3.204,-13.682 9.613,-28.839l-35.553,-84.992l-10.987,-32.959l-1.373,0l-54.931,115.204c-6.409,13.123 -10.987,28.229 -13.733,45.319l1.373,1.373l-0,1.373c-1.526,7.325 -3.357,10.987 -5.493,10.987l-4.12,-0l-13.733,-8.24l-2.747,0l-5.493,1.373l-4.12,-1.373l-2.746,2.747l-1.374,-1.374l-1.373,0l-1.373,1.374l-12.36,-16.48l0,-5.493c0,-16.48 21.515,-66.783 64.545,-150.909l32.959,-70.038c4.984,-3.968 20.498,-6.714 46.539,-8.24c6.205,-0 12.614,4.578 19.226,13.733l0,1.373c0,25.94 11.902,64.341 35.706,115.204c12.817,-21.973 27.008,-59.458 42.572,-112.457c3.153,-11.902 8.647,-17.853 16.479,-17.853c0,-1.628 2.289,-2.543 6.867,-2.747Z" style="fill:#119da4;fill-rule:nonzero;"/><path d="M1542.05,14.343l4.425,0c25.635,0 43.437,11.088 53.406,33.264c-2.34,20.244 -5.697,30.365 -10.071,30.365l-1.526,0c-6.001,0 -16.123,-2.899 -30.365,-8.697l-28.839,-2.899c-52.592,-0 -96.893,21.667 -132.904,65.002c-15.462,20.956 -23.193,43.589 -23.193,67.902c-0,13.529 10.122,20.294 30.365,20.294c12.207,-0 29.551,-3.866 52.032,-11.597l0,-1.373l-1.526,0l-41.809,2.899c0,-2.645 -3.865,-6.052 -11.596,-10.223l1.373,-1.374l-0,-1.525l-8.545,-0l0,-2.9l8.545,-1.373l-0,-1.373l-11.444,-1.526l-0,-2.899l4.272,-0l0,-1.373l-7.171,-0l-0,-1.526l2.899,-4.273c-6.816,0 -10.224,-0.966 -10.224,-2.899c0,-6.409 59.255,-19.887 177.765,-40.436c11.088,0 19.277,6.714 24.567,20.142l1.526,4.425c-0,9.969 -6.765,20.548 -20.294,31.738c-0,9.461 -24.058,28.738 -72.174,57.831c-22.583,12.512 -44.759,18.768 -66.529,18.768l-12.97,0c-43.233,0 -72.174,-22.176 -86.822,-66.528l-1.373,-12.97l-0,-8.698c-0,-34.79 26.957,-76.7 80.871,-125.732c39.876,-26.957 85.653,-40.436 137.329,-40.436Z" style="fill:#119da4;fill-rule:nonzero;"/><path d="M1653.44,6.714l6.714,-0c14.14,-0 25.686,7.528 34.638,22.583l1.22,5.34c0,7.426 -9.765,29.653 -29.296,66.681c-20.447,40.182 -30.671,77.006 -30.671,110.474l0,3.967c22.99,-14.953 41.657,-33.162 56,-54.626c33.773,-43.03 53.762,-74.107 59.967,-93.231l7.935,-17.243c2.645,0 3.967,-1.322 3.967,-3.967l1.373,-1.373l2.747,-0l-0,5.34l1.221,0c2.441,-15.055 4.679,-22.583 6.713,-22.583l1.374,0l-0,5.341l1.22,-0l0,-10.681l2.747,-0l0,3.967c3.154,-1.628 7.121,-8.291 11.902,-19.989l1.373,-0c8.85,8.24 13.275,21.108 13.275,38.605c0,58.593 -37.689,125.173 -113.067,199.737c-14.445,8.952 -30.874,13.428 -49.286,13.428c-34.078,-0 -56.763,-12.461 -68.054,-37.384l-2.594,-16.022l-0,-6.561c-0,-34.994 7.12,-66.071 21.362,-93.231l34.637,-81.33c7.528,-11.495 15.056,-17.242 22.583,-17.242Z" style="fill:#119da4;fill-rule:nonzero;"/><path d="M1942.6,12.817c24.516,0 39.521,7.274 45.014,21.82c3.153,12.92 6.968,38.554 11.444,76.905l1.373,1.373c0.509,6.002 1.78,9.003 3.815,9.003l41.046,-5.188l0,2.594l1.373,-0l20.447,-1.221l0,2.441l-9.003,2.594l0,1.374l9.003,-0l9.003,-1.374l-0,2.594c-8.749,3.459 -15.564,5.188 -20.447,5.188l0,2.594l6.409,-1.373c5.9,1.729 8.85,3.459 8.85,5.188l6.561,-1.373c17.09,0.508 25.635,2.238 25.635,5.188l-1.373,1.221l9.002,2.593l0,2.594c-11.596,6.002 -35.553,11.139 -71.869,15.412l-23.04,3.815c11.088,43.538 16.632,73.089 16.632,88.653l-0,5.036l-3.815,3.967l-1.373,-0c-2.849,-0 -5.799,-1.323 -8.85,-3.967l-0,3.967l-2.594,-0l-0,-2.594l-3.968,2.594l-5.035,-3.967l-12.817,5.188l-10.376,-10.224c-4.273,-6.917 -10.682,-32.196 -19.226,-75.836l-1.221,-0c-53.915,14.852 -80.872,26.449 -80.872,34.79c-3.458,2.136 -13.733,15.36 -30.823,39.673c-5.9,6.917 -10.63,10.376 -14.19,10.376l-2.594,-6.409l-1.221,1.221l-1.221,-0c-5.188,-3.052 -7.782,-6.46 -7.782,-10.224l-1.22,1.221l-2.594,0l-0,-2.594c-3.561,0 -6.968,-2.543 -10.224,-7.629c-3.458,-0 -5.188,-0.865 -5.188,-2.594l0,-9.003c0,-9.562 10.275,-25.38 30.823,-47.455c8.748,-14.546 22.888,-34.688 42.42,-60.425l43.64,-76.904l8.85,-25.787c4.577,-3.357 8.443,-5.036 11.596,-5.036Zm-10.223,124.512l0,1.221c14.547,-3.764 21.82,-6.307 21.82,-7.63l-3.815,-20.599c-2.339,1.017 -8.341,10.02 -18.005,27.008Zm119.324,-21.82l2.594,0l-0,2.594l-2.594,0l-0,-2.594Zm1.373,9.003l0,1.22l2.594,0l0,-1.22l-2.594,-0Z" style="fill:#119da4;fill-rule:nonzero;"/><path d="M2164.76,2.289l11.902,-0c59.306,-0 94.3,19.48 104.981,58.441l1.373,8.087l0,3.967c0,11.699 -26.601,31.179 -79.803,58.442c13.326,56.457 19.989,95.876 19.989,118.255l1.373,1.373l-0,1.221l-1.373,4.12l1.373,11.902l-1.373,1.373l-2.594,0c-0,-3.56 -0.916,-5.34 -2.747,-5.34c-0,2.644 -0.865,3.967 -2.594,3.967l-2.747,-0l-1.22,-1.373l-1.374,-0c-1.322,3.56 -2.644,5.34 -3.967,5.34l-6.714,-1.373l-2.594,2.747c-0.61,-4.476 -2.848,-6.714 -6.714,-6.714c-14.139,-32.959 -26.499,-71.055 -37.078,-114.289l-59.815,19.989c-5.493,12.513 -9.918,19.582 -13.275,21.21l-1.373,6.714l-3.968,-0l5.341,-14.649l-0,-1.373l-1.373,0l-6.714,14.649l2.746,2.746c-3.357,0 -10.02,9.257 -19.989,27.771c-1.22,0.102 -3.865,5.9 -7.934,17.395c-1.831,0 -6.256,8.85 -13.275,26.55l-1.374,0c0,-4.069 -4.425,-7.629 -13.275,-10.681l-2.594,2.747c0,-1.831 -1.373,-2.747 -4.12,-2.747l-3.967,1.374c-1.933,-4.781 -4.578,-7.426 -7.935,-7.935l0,-4.12c0,-21.464 24.364,-80.821 73.09,-178.07c-18.616,-12.614 -27.924,-22.786 -27.924,-30.517l0,-6.562c0.713,-4.679 17.09,-12.665 49.134,-23.956c4.476,-7.121 27.974,-10.681 70.495,-10.681Zm-42.572,104.98l2.747,0c53.202,-22.786 85.5,-40.944 96.893,-54.474l0,-1.373l-26.55,-1.221l-2.594,0c-33.671,0 -50.507,3.968 -50.507,11.902c-10.477,26.754 -17.14,41.809 -19.989,45.166Z" style="fill:#119da4;fill-rule:nonzero;"/><path d="M2365.26,14.191l6.714,-0c34.892,-0 67.444,10.579 97.656,31.738c12.309,11.902 18.463,23.346 18.463,34.332c0,24.821 -25.94,62.663 -77.82,113.526c-27.262,20.039 -54.575,35.909 -81.939,47.607c-31.332,9.155 -50.71,16.632 -58.136,22.43l-14.496,-1.373c-16.378,7.935 -26.5,11.902 -30.365,11.902l-1.373,-1.373l3.967,-6.562l-1.221,0l-7.934,2.594l-1.374,-7.934l2.594,-5.188l-1.22,-0l-6.562,2.594l-1.373,-1.373l-0,-1.221l1.373,-3.967l-1.373,-0l-5.341,1.373c-2.644,-0 -3.967,-1.78 -3.967,-5.341c-4.374,-0.61 -6.561,-1.932 -6.561,-3.967c3.865,-4.171 9.613,-7.68 17.242,-10.529c15.056,-11.494 35.706,-47.607 61.951,-108.337c15.869,-36.519 23.804,-57.22 23.804,-62.103c-15.971,-0 -28.28,-10.529 -36.927,-31.586c0,-7.426 34.74,-13.173 104.218,-17.242Zm-57.984,177.002c74.769,-34.892 112.153,-67.902 112.153,-99.03c-0,-20.447 -16.276,-33.213 -48.829,-38.299c-6.51,-0 -11.342,7.883 -14.495,23.651l-48.829,113.678Z" style="fill:#119da4;fill-rule:nonzero;"/><path d="M415.249,289.059l13.733,0c20.956,0 39.266,13.733 54.932,41.199l-5.493,109.863c-0,30.925 4.577,55.746 13.733,74.463c3.865,-0.203 22.277,-18.615 55.236,-55.237c6.104,-1.831 42.725,-37.536 109.864,-107.116c25.227,-34.79 50.964,-52.185 77.209,-52.185l19.226,-2.747c17.904,4.069 27.975,9.562 30.213,16.48c4.069,-0 12.308,7.324 24.719,21.972l-0,5.493c-0,18.514 -26.652,86.365 -79.956,203.553c-18.107,43.945 -30.009,65.918 -35.706,65.918l2.747,2.746l-0,2.747l-35.706,71.411c-3.255,0.203 -17.903,30.517 -43.945,90.942l-19.226,24.72l-19.226,-0l-0,-5.494l-10.987,5.494c0,-4.069 -6.408,-7.732 -19.226,-10.987l-5.493,5.493c-5.086,-0.61 -8.748,-5.188 -10.986,-13.733c-7.324,0 -10.986,-1.831 -10.986,-5.493l-0,-19.226c-0,-35.604 27.465,-104.37 82.397,-206.299c-28.687,26.449 -56.152,59.408 -82.397,98.877c-6.104,0 -14.445,5.494 -25.025,16.48l-2.746,-0c-19.532,-13.631 -37.842,-21.871 -54.932,-24.719c-18.514,-12.614 -34.994,-50.151 -49.439,-112.61l-2.746,-0c-79.956,183.512 -124.003,278.829 -132.141,285.949l-5.493,0l-13.733,-8.239l-8.24,2.746l-2.747,-2.746l-2.746,2.746l-5.493,-10.986l-5.494,5.493l-2.746,-2.746l-24.719,5.493c-4.069,-9.969 -9.563,-15.463 -16.48,-16.48l0,-10.986c0,-43.945 52.287,-168.661 156.86,-374.146c24.618,-75.073 44.76,-112.609 60.425,-112.609l32.959,-5.494Z" style="fill:#bf4e30;fill-rule:nonzero;"/><path d="M1033.54,305.234c49.032,-0 79.041,14.546 90.027,43.64c6.307,25.838 13.937,77.108 22.888,153.808l2.747,2.747c1.017,12.004 3.56,18.005 7.629,18.005l82.093,-10.376l-0,5.188l2.746,0l40.894,-2.441l-0,4.883l-18.006,5.188l0,2.746l18.006,0l18.005,-2.746l0,5.188c-17.497,6.917 -31.128,10.376 -40.893,10.376l-0,5.188l12.817,-2.747c11.8,3.459 17.7,6.917 17.7,10.376l13.123,-2.746c34.179,1.017 51.269,4.475 51.269,10.375l-2.746,2.442l18.005,5.188l0,5.188c-23.193,12.003 -71.106,22.278 -143.738,30.823l-46.081,7.629c22.176,87.077 33.264,146.179 33.264,177.307l-0,10.071l-7.629,7.935l-2.747,-0c-5.697,-0 -11.597,-2.645 -17.7,-7.935l-0,7.935l-5.188,-0l-0,-5.188l-7.935,5.188l-10.071,-7.935l-25.634,10.376l-20.752,-20.447c-8.545,-13.834 -21.363,-64.392 -38.453,-151.672l-2.441,-0c-107.829,29.704 -161.743,52.897 -161.743,69.58c-6.917,4.272 -27.466,30.721 -61.646,79.346c-11.8,13.834 -21.26,20.752 -28.381,20.752l-5.188,-12.818l-2.441,2.442l-2.442,-0c-10.376,-6.104 -15.564,-12.92 -15.564,-20.447l-2.441,2.441l-5.188,0l-0,-5.188c-7.121,0 -13.936,-5.086 -20.447,-15.259c-6.917,0 -10.376,-1.729 -10.376,-5.188l0,-18.005c0,-19.124 20.549,-50.761 61.646,-94.91c17.496,-29.093 45.776,-69.376 84.839,-120.849l87.28,-153.809l17.7,-51.575c9.155,-6.713 16.886,-10.07 23.193,-10.07Zm-20.446,249.023l-0,2.442c29.093,-7.528 43.64,-12.614 43.64,-15.259l-7.63,-41.199c-4.679,2.034 -16.683,20.04 -36.01,54.016Zm238.647,-43.64l5.188,-0l0,5.188l-5.188,-0l0,-5.188Zm2.747,18.005l-0,2.442l5.188,-0l-0,-2.442l-5.188,0Z" style="fill:#bf4e30;fill-rule:nonzero;"/><path d="M1529.14,277.463l54.626,2.746l54.627,0c10.579,0 18.31,4.883 23.193,14.649l-3.052,2.746c9.563,0.611 14.344,3.459 14.344,8.545l-0,3.052l-31.433,-0l-0,2.747l11.291,-0l0,5.798l-5.493,-0l2.746,3.052l-2.746,2.746l-0,5.799l14.343,2.746l0,3.052l-3.052,2.746l0,3.052c11.597,0 17.395,7.63 17.395,22.888c7.732,1.018 11.597,3.866 11.597,8.545l0,5.799l-169.983,20.141c-14.445,0 -25.94,18.209 -34.485,54.627c-101.318,197.347 -161.845,323.079 -181.579,377.197c-11.597,11.597 -21.159,17.395 -28.687,17.395l-11.597,-11.597c-11.393,0 -17.089,-4.781 -17.089,-14.343l-3.052,3.052l-2.747,-0c-0.407,-4.883 -9.969,-13.53 -28.686,-25.94l-8.85,-14.649c-0,-38.655 46.081,-141.296 138.244,-307.922l23.194,-54.626l-106.812,17.089c-40.283,0 -67.139,-18.208 -80.566,-54.626l-8.545,-34.485l-0,-5.798c-0,-12.207 7.629,-23.702 22.888,-34.485l37.537,-0c60.221,-0 161.031,-10.579 302.429,-31.738Z" style="fill:#bf4e30;fill-rule:nonzero;"/><path d="M1805.93,291.501c27.466,-0 57.068,22.786 88.806,68.359c0,16.073 -14.343,49.439 -43.029,100.098l-25.635,57.068l5.798,-0l174.256,-45.777c26.041,-66.731 53.609,-123.799 82.702,-171.203l28.687,-8.545c21.159,0.61 47.811,18.717 79.956,54.321l-0,17.09c-0,13.631 -19.023,49.744 -57.068,108.337c-11.597,29.094 -17.395,49.134 -17.395,60.12l8.545,8.545l-0,5.798l-34.18,17.09c0,5.697 -3.764,8.545 -11.291,8.545l-0,2.747l2.746,3.051l0,2.747c-3.255,-0 -6.103,5.696 -8.545,17.09c-4.883,-0 -11.596,10.477 -20.141,31.433l-2.747,-0l-2.746,-2.747l-3.052,0c-0,15.869 -9.461,25.33 -28.382,28.382l2.747,3.051l0,5.799c-5.697,-0 -8.545,2.848 -8.545,8.545l-5.798,-0l-2.747,11.291l2.747,2.747l-0,5.798l-2.747,0l-8.545,-2.747l0,8.545l-2.746,0l2.746,2.747l0,3.052c-15.259,14.852 -25.736,38.655 -31.433,71.411c0,9.155 -5.696,21.464 -17.09,36.926l-3.051,0l-2.747,-2.746l-2.747,-0l-8.545,8.544c0,-3.865 -10.477,-6.713 -31.433,-8.544l-3.051,-11.597l-2.747,3.052l-2.747,-0c-5.696,-6.918 -8.545,-14.547 -8.545,-22.889c0,-35.807 16.175,-85.347 48.523,-148.62l14.039,-34.18l-2.747,0l-202.637,51.27c-4.476,11.596 -8.341,17.395 -11.596,17.395l-2.747,-3.052l-3.052,-0c-13.224,15.055 -26.55,44.556 -39.978,88.501l-36.926,57.373l-3.052,-0l0,-5.798l-11.291,8.545l-39.978,-14.344c-0,-9.562 -4.781,-14.343 -14.344,-14.343l0,-17.09c0,-21.769 20.04,-70.292 60.12,-145.569l2.747,-14.343c-5.697,-1.831 -8.545,-7.528 -8.545,-17.09l-0,-22.888c31.738,-16.479 49.845,-33.671 54.321,-51.575l59.814,-142.822l-2.746,-2.747l-0,-2.746l25.635,-57.068l34.179,-14.343Z" style="fill:#bf4e30;fill-rule:nonzero;"/></g></svg>