<?xml version="1.0" encoding="UTF-8" standalone="no"?><!DOCTYPE svg PUBLIC "-//W3C//DTD SVG 1.1//EN" "http://www.w3.org/Graphics/SVG/1.1/DTD/svg11.dtd"><svg width="100%" height="100%" viewBox="0 0 6230 6213" version="1.1" xmlns="http://www.w3.org/2000/svg" xmlns:xlink="http://www.w3.org/1999/xlink" xml:space="preserve" xmlns:serif="http://www.serif.com/" style="fill-rule:evenodd;clip-rule:evenodd;stroke-linejoin:round;stroke-miterlimit:2;"><g id="stop"><path id="hand-background" d="M1965.95,309.864c-38.332,13.675 -110.804,80.455 -370.015,340.908c-4.363,4.374 -287.399,288.104 -628.981,630.499c-603.537,604.967 -621.684,623.866 -643.564,669.553l-22.505,47.016l1.536,1116.65c1.129,815.25 3.482,1121.62 8.676,1135.05c23.382,60.348 117.09,163.105 390.906,428.624c5.19,5.036 155.938,155.408 171.321,170.9c16.298,16.407 253.004,253.787 259.606,260.344c3.467,3.452 174.759,175.259 380.634,381.793c343.746,344.845 377.686,377.121 415.717,395.219l41.404,19.7l1133.86,1.66l1133.87,1.679l44.069,-22.192c39.13,-19.712 501.521,-470.089 929.551,-905.428c4.532,-4.611 147.97,-149.069 318.761,-321.019c389.027,-391.693 380.242,-381.906 388.632,-433.552c4.298,-26.517 6.477,-409.597 6.462,-1134.73l-0.049,-1094.7l-24.526,-44.227c-13.486,-24.323 -38.065,-56.787 -54.611,-72.14c-16.543,-15.357 -40.053,-38.882 -52.241,-52.275c-12.169,-13.377 -130.829,-132.631 -263.667,-265c-132.835,-132.353 -243.576,-242.792 -246.071,-245.397c-8.341,-8.702 -255.293,-255.48 -268.418,-268.229c-7.106,-6.903 -104.654,-104.296 -216.775,-216.429c-112.118,-112.137 -209.625,-209.53 -216.663,-216.43c-7.043,-6.903 -64.176,-64.774 -126.975,-128.604c-118.001,-119.962 -160.425,-158.573 -194.44,-176.956c-26.927,-14.552 -2254.91,-16.78 -2295.5,-2.289" style="fill:#fefefe;"/><path id="sign" d="M1843.2,10.863c-42.434,15.137 -122.659,89.062 -409.6,377.379c-4.829,4.841 -318.146,318.925 -696.271,697.95c-668.104,669.687 -688.192,690.608 -712.413,741.183l-24.912,52.046l1.7,1236.11c1.25,902.467 3.854,1241.61 9.604,1256.48c25.883,66.805 129.617,180.555 432.725,474.48c5.746,5.574 172.621,172.033 189.65,189.183c18.042,18.162 280.071,280.937 287.379,288.196c3.838,3.82 193.454,194.008 421.354,422.637c380.521,381.738 418.092,417.467 460.192,437.5l45.834,21.808l1255.16,1.838l1255.17,1.858l48.783,-24.566c43.317,-21.821 555.175,-520.38 1029,-1002.29c5.016,-5.104 163.8,-165.017 352.862,-355.363c430.646,-433.595 420.921,-422.762 430.209,-479.933c4.758,-29.354 7.17,-453.416 7.154,-1256.12l-0.054,-1211.81l-27.15,-48.959c-14.93,-26.925 -42.138,-62.862 -60.455,-79.858c-18.312,-17 -44.337,-43.042 -57.829,-57.867c-13.471,-14.808 -144.825,-146.82 -291.875,-293.35c-147.046,-146.512 -269.633,-268.766 -272.396,-271.65c-9.233,-9.633 -282.604,-282.812 -297.133,-296.924c-7.867,-7.642 -115.85,-115.455 -239.967,-239.584c-124.112,-124.133 -232.05,-231.946 -239.841,-239.583c-7.796,-7.642 -71.042,-71.704 -140.559,-142.363c-130.624,-132.795 -177.587,-175.537 -215.241,-195.887c-29.809,-16.108 -2496.15,-18.575 -2541.08,-2.533m1230.73,426.025c57.029,31.458 102.013,76.425 134.425,134.391l25.504,45.592l0.071,1023.63l0.067,1023.65l20.104,35.067c28.958,50.487 33.037,52.641 95.121,50.312l54.166,-2.046l21.146,-30.104l21.129,-30.125l3.63,-858.767c4.133,-980.087 -3.871,-881.371 78.612,-968.487c143.838,-151.929 387.446,-90.054 420.504,106.804c5.329,31.771 7.671,327.258 7.671,969.446c0,679.254 2.121,930 8.004,947.342c35.659,105.104 168.075,118.766 212.413,21.912l17.554,-38.333l-1.354,-633.459l-1.338,-633.471l27.259,-58.991l27.254,-59.013l61.704,-35.241c143.975,-82.221 314.458,-33.509 380.187,108.662l14.846,32.1l2.342,1086.81c2.762,1280.47 -2.271,1458.8 -44.513,1577.61c-11.37,31.979 -51.979,196.925 -69.791,283.504c-5.884,28.646 -21.371,76.425 -34.409,106.162c-13.037,29.759 -31.65,82.884 -41.37,118.059c-22.955,83.037 -35.384,114.616 -55.696,141.387c-9.134,12.013 -26.217,42.013 -38.004,66.65c-11.771,24.654 -41.98,69.513 -67.117,99.688c-25.158,30.175 -53.525,66.595 -63.058,80.921c-9.546,14.337 -33.334,37.462 -52.863,51.387c-19.533,13.942 -53.125,40.471 -74.617,58.975c-21.512,18.508 -63.7,46.392 -93.75,61.963c-30.07,15.554 -73.404,38.837 -96.32,51.737c-22.917,12.9 -61.98,28.838 -86.805,35.417c-24.829,6.562 -81.079,25.12 -125,41.233c-64.308,23.575 -95.416,30.779 -159.725,36.958c-43.92,4.238 -115.4,11.129 -158.816,15.35c-202.138,19.567 -461.875,18.021 -712.709,-4.287c-64.933,-5.767 -136.183,-10.417 -158.354,-10.35c-49.441,0.175 -125.9,-16.65 -175.604,-38.629c-20.471,-9.042 -69.325,-22.934 -108.562,-30.85c-72.984,-14.704 -140.45,-41.404 -180.709,-71.525c-12.433,-9.292 -36.754,-23.042 -54.029,-30.559c-76.112,-33.037 -383.804,-331.82 -441.804,-428.991c-13.683,-22.917 -35.021,-52.917 -47.417,-66.65c-12.412,-13.75 -32.462,-43.575 -44.562,-66.267c-12.084,-22.692 -35.871,-58.196 -52.85,-78.888c-16.979,-20.695 -40.817,-56.495 -53.004,-79.566c-12.167,-23.092 -31.059,-52.292 -41.98,-64.913c-10.916,-12.641 -33.4,-51.704 -49.979,-86.808c-16.562,-35.121 -39.583,-75.554 -51.146,-89.842c-11.562,-14.287 -31.008,-50.712 -43.195,-80.954c-12.188,-30.246 -32.971,-67.587 -46.163,-83.021c-13.212,-15.437 -34.933,-52.016 -48.283,-81.304c-13.35,-29.287 -35.209,-66.596 -48.559,-82.9c-13.366,-16.317 -35.57,-55.796 -49.32,-87.742c-13.75,-31.945 -35.646,-72.708 -48.646,-90.554c-12.988,-17.866 -34.879,-56.929 -48.646,-86.808c-13.75,-29.896 -34.133,-64.792 -45.279,-77.55c-11.146,-12.779 -32.517,-49.742 -47.484,-82.138c-14.966,-32.395 -37.966,-73.558 -51.129,-91.491c-119.321,-162.554 -39.962,-409.929 159.846,-498.3c74.738,-33.054 216.129,-17.742 268.525,29.062c16.733,14.95 42.083,36.096 56.317,46.963c14.237,10.887 39.237,40.575 55.537,65.971c16.304,25.416 34.742,50.4 40.959,55.541c6.212,5.138 22.829,30.138 36.891,55.554c14.063,25.417 39.617,64.967 56.771,87.884c17.171,22.916 37.358,55.729 44.879,72.916c7.517,17.188 26.925,48.438 43.125,69.442c16.196,21.008 42.375,61.058 58.159,88.996c15.779,27.933 39.341,63.871 52.362,79.858c13,15.992 30.9,44.688 39.754,63.788c30.104,64.946 127.813,145.225 157.363,129.304c32.116,-17.325 45.346,-42.883 68.054,-131.513c50.85,-198.541 46.287,-67.029 51.704,-1490.85c2.708,-706.595 7.413,-1294.1 10.467,-1305.55c9.341,-34.95 118.525,-139.583 156.129,-149.616c122.692,-32.709 226.162,7.15 312.029,120.225c19.308,25.416 20.871,90.504 21.008,872.412c0.175,964.617 -7.17,894.688 95.471,910.608c72.429,11.234 101.075,-5.245 126.317,-72.708c13.996,-37.396 14.133,-48.162 13.371,-949.654c-0.417,-501.492 -0.175,-936.821 0.554,-967.379c4.929,-207.55 194.079,-343.575 354.654,-255.034" style="fill:#bf2b2b;"/></g></svg>